<svg xmlns="http://www.w3.org/2000/svg" viewBox="0 0 69.88 30.02"><defs><style>.cls-1{fill:#42beec;}</style></defs><title>logo</title><g id="图层_2" data-name="图层 2"><g id="图层_1-2" data-name="图层 1"><path class="cls-1" d="M5.78,11.33H8.63a1,1,0,0,1,.94,1.34l-3,8.46c1.23-1.38,3-2.89,4.18-4.23s2.3-2.57,3.4-3.6a14.9,14.9,0,0,1,3.2-2.36,3.55,3.55,0,0,1,2.82-.39q.85.28.88,1.51A10.66,10.66,0,0,1,20.64,15a36.19,36.19,0,0,1-1.09,3.49l-1.23,3.35a22.9,22.9,0,0,0-.81,2.54c-.17.68-.11,1,.18,1a3,3,0,0,0,1.41-.42,9,9,0,0,0,1.58-1.13q.81-.7,1.66-1.55T24,20.63a4.57,4.57,0,0,1,1.44-1,1,1,0,0,1,.91,0,.72.72,0,0,1,.28.7,2.2,2.2,0,0,1-.53,1.13A37.5,37.5,0,0,1,22.4,25.7a23.33,23.33,0,0,1-3.77,2.92,8,8,0,0,1-4.33,1.3A2.54,2.54,0,0,1,12,29a3.72,3.72,0,0,1-.53-2.29,11.63,11.63,0,0,1,.6-3q.53-1.62,1.09-3t.88-2.29c.21-.61.2-.92,0-.92s-.62.28-1.16.84A120.38,120.38,0,0,0,4.1,30H0c.52-1.19,1.09-2.77,1.72-4.7s1.23-3.9,1.8-5.87l-.84.25a1.07,1.07,0,0,1-1.36-1.22Z"/><path class="cls-1" d="M39.94,20.63a3.15,3.15,0,0,1,1.2-.88,1.7,1.7,0,0,1,1-.14.57.57,0,0,1,.42.56,2.38,2.38,0,0,1-.53,1.3q-.63.85-2,2.33A30.77,30.77,0,0,1,37,26.72a18.51,18.51,0,0,1-3.73,2.43,7,7,0,0,1-3.91.78,5.17,5.17,0,0,1-3.49-1.66,7.55,7.55,0,0,1-1.76-3.49,12,12,0,0,1-.11-4.4,11.53,11.53,0,0,1,1.55-4.33,10.16,10.16,0,0,1,3.2-3.28,8.67,8.67,0,0,1,4.83-1.3,4,4,0,0,1,3.63,1.69,5.12,5.12,0,0,1,.78,3.7,6.68,6.68,0,0,1-2,3.7,6.38,6.38,0,0,1-4.72,1.69,5,5,0,0,1-.88-.07,3.82,3.82,0,0,1-.74-.21l-.37-.17a.27.27,0,0,0-.39.22,3.8,3.8,0,0,0,.06,1,3.71,3.71,0,0,0,.53,1.34,3.14,3.14,0,0,0,1,1,2.77,2.77,0,0,0,1.48.39,5.36,5.36,0,0,0,2.22-.49A10.92,10.92,0,0,0,36.31,24a18.8,18.8,0,0,0,1.94-1.69l1.69-1.69m-5.42-6.34a1.92,1.92,0,0,0-1.95-.18,3.79,3.79,0,0,0-1.73,1.43,10.82,10.82,0,0,0-1.23,2.17,4.93,4.93,0,0,0-.34,1.5.51.51,0,0,0,.43.55,4.06,4.06,0,0,0,1.89-.3A5.51,5.51,0,0,0,34,18.09,4.84,4.84,0,0,0,35.15,16a1.58,1.58,0,0,0-.63-1.7"/><path class="cls-1" d="M54.1,8.35H49.66l-4.3,12.58-1,3.05c-.31.92-.32,1.37,0,1.37a3,3,0,0,0,1.41-.43,10,10,0,0,0,1.62-1.13q.84-.7,1.69-1.55l1.62-1.62a4.48,4.48,0,0,1,1.48-1,1.09,1.09,0,0,1,1,0,.66.66,0,0,1,.25.7,2.52,2.52,0,0,1-.56,1.13A37.28,37.28,0,0,1,49,25.7a23.3,23.3,0,0,1-3.77,2.92,8,8,0,0,1-4.33,1.3A2.5,2.5,0,0,1,38.71,29a3.46,3.46,0,0,1-.53-2.18A11.55,11.55,0,0,1,38.74,24q.49-1.55,1.06-3c.56-1.6,1.27-3.53,2.11-5.86s1.67-4.56,2.47-6.84H35l.38-1a3.42,3.42,0,0,1,3.23-2.25h7c.23-.8.47-1.47.7-2.08s.45-1.13.63-1.6.35-1,.49-1.39H51a1.1,1.1,0,0,1,1,1.46v0c-.28.94-.68,2.1-1.2,3.59h4.44Z"/><path class="cls-1" d="M69.22,25.62a19.09,19.09,0,0,1-2,1.91,12.24,12.24,0,0,1-3.32,2.17,3.22,3.22,0,0,1-1.46.25c-2.09-.15-2.4-2.24-2.19-3.83a15.29,15.29,0,0,1-3.94,3.13,3.85,3.85,0,0,1-5.49-1.2A5.79,5.79,0,0,1,50,25.42,11,11,0,0,1,50.29,22a17.76,17.76,0,0,1,1.48-4,18.77,18.77,0,0,1,2-2.92,14.44,14.44,0,0,1,2.43-2.36,10.27,10.27,0,0,1,2.64-1.48,5.47,5.47,0,0,1,2.54-.35A4.28,4.28,0,0,1,64.88,13l.7-1.69,2.19.1a.75.75,0,0,1,.68,1c-.33,1.09-.66,2.06-1,3s-.74,2.15-1.09,3.2l-.81,2.43-1,3.06q-.46,1.37,0,1.37A2.8,2.8,0,0,0,65.89,25a10.56,10.56,0,0,0,1.54-1.11c.35-.3.71-.59,1-.91a.79.79,0,0,1,.65-.25.67.67,0,0,1,.55.34,2.17,2.17,0,0,1,0,1.92,3.06,3.06,0,0,1-.43.64M61.83,19q1.29-2.47.84-3.84a1.9,1.9,0,0,0-2.13-1.3A4.21,4.21,0,0,0,58,15.35a14.68,14.68,0,0,0-2.57,3.85,24.85,24.85,0,0,0-1.73,4.67c-.16.69-.52,2,.38,2.4A2.15,2.15,0,0,0,56,26a9.66,9.66,0,0,0,2.17-1.76,22.65,22.65,0,0,0,2.05-2.54A19.13,19.13,0,0,0,61.83,19"/></g></g></svg>